C:\Users\Nicos\Documents\OpenSimProjects\SprintingProject\Study1\PredictiveResults\IC_pred_Sprinting_optimum_26-October-2023__20-13-02_p02_maxVel_01___IKTD_Plus_6_GRF.mot
version=1
nRows=57
nColumns=10
inDegrees=yes
endheader
time	ground_force_vx	ground_force_vy	ground_force_vz	ground_force_px	ground_force_py	ground_force_pz	ground_torque_x	ground_torque_y	ground_torque_z
0.056000	-82.955786	40.000000	16.038836	0.355024	0.000000	0.408535	-16.341390	-39.581388	14.200950
0.056648	-114.169768	55.481219	19.872893	0.357129	0.000000	0.408215	-22.648273	-53.696190	19.813975
0.058694	-227.769589	115.040241	21.677840	0.362768	0.000000	0.407517	-46.880909	-100.629841	41.732974
0.060177	-322.498257	169.417976	10.933931	0.365615	0.000000	0.407513	-69.040107	-135.253751	61.941752
0.060824	-374.433851	200.528476	4.223515	0.365890	0.000000	0.407996	-81.814790	-154.049230	73.371315
0.062870	-595.386335	348.883590	-25.601375	0.363364	0.000000	0.409389	-142.828979	-233.501791	126.771776
0.064353	-792.938863	514.263876	-58.105443	0.360600	0.000000	0.410299	-211.001794	-302.457692	185.443672
0.065001	-883.086214	606.093998	-73.511165	0.359107	0.000000	0.410716	-248.932282	-333.711586	217.652896
0.067047	-1115.471018	968.283501	-129.782318	0.354757	0.000000	0.411756	-398.696965	-407.246653	343.504888
0.068530	-1197.441002	1302.359884	-159.794602	0.349754	0.000000	0.412220	-536.858456	-425.666976	455.506191
0.069177	-1208.841367	1478.295406	-163.955173	0.346226	0.000000	0.412413	-609.668612	-424.870837	511.824157
0.071223	-1091.869261	2044.875334	-134.545070	0.336124	0.000000	0.412904	-844.337363	-368.886293	687.331545
0.072706	-883.020839	2419.245359	-76.618992	0.330323	0.000000	0.413112	-999.418275	-287.766888	799.131890
0.073354	-771.169801	2562.683514	-52.447029	0.327974	0.000000	0.413140	-1058.746148	-243.925899	840.493129
0.075400	-377.402963	2975.608166	28.713885	0.322429	0.000000	0.413189	-1229.487640	-98.474329	959.420943
0.076883	-206.932477	3239.940229	58.754492	0.319636	0.000000	0.413099	-1338.415760	-37.268866	1035.602505
0.077530	-188.635300	3347.645614	49.853739	0.318635	0.000000	0.412993	-1382.555533	-27.148382	1066.677889
0.079576	-75.617774	3646.454522	10.391094	0.317086	0.000000	0.412716	-1504.949475	26.224198	1156.238897
0.081059	38.730292	3818.097507	-148.385541	0.317199	0.000000	0.412052	-1573.256133	98.361256	1211.097194
0.081707	62.615977	3882.136941	-116.708275	0.317446	0.000000	0.412193	-1600.191262	103.110875	1232.368003
0.083753	167.650536	4023.103973	-123.583632	0.319030	0.000000	0.412253	-1658.535740	148.849258	1283.492155
0.085236	241.205362	4066.570599	-130.132850	0.320691	0.000000	0.412331	-1676.774223	181.056050	1304.112317
0.085883	272.496211	4069.039714	-129.820815	0.321509	0.000000	0.412381	-1677.995599	193.753959	1308.234639
0.087930	341.187076	4033.275012	-125.927685	0.324846	0.000000	0.412586	-1664.071896	220.382399	1310.194094
0.089412	382.553955	3962.122757	-119.926925	0.327923	0.000000	0.412782	-1635.493339	235.393328	1299.272968
0.090060	406.460520	3917.618521	-115.716328	0.329425	0.000000	0.412883	-1617.519632	243.674179	1290.560174
0.092106	477.401517	3733.372650	-101.852555	0.334828	0.000000	0.413126	-1542.351921	266.013003	1250.036350
0.093589	503.049251	3564.292331	-91.493503	0.339303	0.000000	0.413395	-1473.462135	272.195335	1209.375278
0.094237	522.607826	3483.164349	-74.079766	0.341473	0.000000	0.413635	-1440.760249	276.291580	1189.407739
0.096283	559.852070	3215.491946	-65.452315	0.348943	0.000000	0.414054	-1331.387076	283.828551	1122.022890
0.097766	573.408797	3013.501596	-56.958707	0.354908	0.000000	0.414372	-1248.712008	283.920933	1069.514649
0.098413	577.704987	2924.683507	-51.645024	0.357641	0.000000	0.414528	-1212.363816	282.648731	1045.986449
0.100459	585.852564	2646.917388	-38.708099	0.366571	0.000000	0.415023	-1098.531423	277.260062	970.283447
0.101942	590.921893	2456.042450	-30.140073	0.372954	0.000000	0.415370	-1020.166759	272.863484	915.990999
0.102590	593.695971	2380.985600	-27.406800	0.375445	0.000000	0.415486	-989.266681	271.243663	893.928972
0.104636	603.660513	2179.073531	-21.040118	0.381128	0.000000	0.415745	-905.939953	269.809902	830.506238
0.106119	611.292847	2034.709329	-13.745605	0.384982	0.000000	0.416019	-846.477014	268.853069	783.326529
0.106766	612.979050	1968.872313	-9.323163	0.386682	0.000000	0.416151	-819.348491	267.686808	761.326703
0.108812	618.633854	1759.183562	5.447790	0.392688	0.000000	0.416695	-733.042382	262.887508	690.810753
0.110295	613.481441	1602.264132	14.863958	0.397327	0.000000	0.417107	-668.315888	256.552773	636.622487
0.110943	610.292295	1533.952460	20.002360	0.399367	0.000000	0.417302	-640.121863	253.098500	612.610564
0.112989	592.898437	1337.627141	35.665743	0.405425	0.000000	0.417940	-559.047618	238.714625	542.307569
0.114472	574.111048	1204.679022	46.484253	0.409692	0.000000	0.418429	-504.072815	225.766246	493.547304
0.115119	564.138495	1147.922546	49.542246	0.411560	0.000000	0.418653	-480.581119	219.990027	472.438964
0.117165	535.871421	978.365075	56.776920	0.416580	0.000000	0.419443	-410.368242	203.146705	407.567410
0.118648	509.042492	866.170021	64.405066	0.418878	0.000000	0.419802	-363.619968	187.695447	362.819411
0.119296	494.851307	821.670942	67.428697	0.419477	0.000000	0.419815	-344.949727	180.163477	344.671709
0.121342	444.930039	690.660093	76.133408	0.420239	0.000000	0.419505	-289.735249	154.893424	290.242493
0.122825	406.829843	600.183639	81.240467	0.420070	0.000000	0.419233	-251.616555	136.495215	252.118936
0.123472	390.801138	564.285147	83.937938	0.419586	0.000000	0.419168	-236.530373	128.626757	236.766008
0.125519	333.708447	452.720794	85.278226	0.416951	0.000000	0.418833	-189.614384	104.215949	188.762231
0.127001	281.979344	368.919387	79.800237	0.414382	0.000000	0.418372	-154.345453	84.904912	152.873439
0.127649	255.793556	331.926960	77.917990	0.413061	0.000000	0.418184	-138.806569	74.784076	137.105996
0.129695	164.746042	215.698247	74.426101	0.408347	0.000000	0.417581	-90.071407	38.403075	88.079749
0.131178	102.913696	138.026901	62.442940	0.404721	0.000000	0.416500	-57.488227	17.591577	55.862442
0.131826	78.970282	107.290714	53.311927	0.403146	0.000000	0.415711	-44.601955	11.336348	43.253813
0.133872	20.888141	29.919241	20.229683	0.398176	0.000000	0.411895	-12.323585	0.548741	11.913132
